<?xml version="1.0" standalone="no"?>
<!DOCTYPE svg PUBLIC "-//W3C//DTD SVG 1.1//EN" "http://www.w3.org/Graphics/SVG/1.1/DTD/svg11.dtd">
<svg width="27.0mm" height="28.0mm"
 viewBox="0 0 27.0 28.0"
 xmlns="http://www.w3.org/2000/svg" version="1.1"
 xmlns:xlink="http://www.w3.org/1999/xlink">
<desc>Output from Flights of Ideas SVG Sketchup Plugin</desc>

  <path id="face0-cut"
 style="fill:none;stroke:#0000FF;stroke-width:1;stroke-miterlimit:4;stroke-dasharray:none;stroke-linejoin:round;stroke-linecap:round"
        d="M 15.0,13.0 L 11.0,13.0 L 11.0,10.0 L 10.0,10.0 L 10.0,14.0 L 15.0,14.0 L 15.0,15.516231590424274 L 10.0,15.516231590424272 L 10.0,16.466002022327388 L 15.0,16.466002022327388 L 15.0,18.0 L 16.0,18.0 L 16.0,14.0 L 16.25881904510252,13.96592582628907 L 16.5,13.86602540378444 L 16.707106781186546,13.707106781186548 L 16.86602540378444,13.5 L 16.96592582628907,13.258819045102523 L 17.0,13.0 L 16.96592582628907,12.74118095489748 L 16.86602540378444,12.5 L 16.70710678118655,12.292893218813452 L 16.5,12.13397459621556 L 16.25881904510252,12.03407417371093 L 16.0,12.0 L 15.74118095489748,12.03407417371093 L 15.5,12.13397459621556 L 15.292893218813454,12.292893218813452 L 15.133974596215563,12.5 L 15.034074173710932,12.74118095489748 L 15.0,13.0 "
  />
  <path id="face0-interior"
 style="fill:none;stroke:#FF0000;stroke-width:1;stroke-miterlimit:4;stroke-dasharray:none;stroke-linejoin:round;stroke-linecap:round"
        d="M 15.0,13.0 M 11.0,13.0 M 11.0,10.0 M 10.0,10.0 M 10.0,14.0 M 15.0,14.0 M 15.0,15.516231590424274 M 10.0,15.516231590424272 M 10.0,16.466002022327388 M 15.0,16.466002022327388 M 15.0,18.0 M 16.0,18.0 M 16.0,14.0 M 16.25881904510252,13.96592582628907 M 16.5,13.86602540378444 M 16.707106781186546,13.707106781186548 M 16.86602540378444,13.5 M 16.96592582628907,13.258819045102523 M 17.0,13.0 M 16.96592582628907,12.74118095489748 M 16.86602540378444,12.5 M 16.70710678118655,12.292893218813452 M 16.5,12.13397459621556 M 16.25881904510252,12.03407417371093 M 16.0,12.0 M 15.74118095489748,12.03407417371093 M 15.5,12.13397459621556 M 15.292893218813454,12.292893218813452 M 15.133974596215563,12.5 M 15.034074173710932,12.74118095489748 "
  />
  <path id="face0-interior"
 style="fill:none;stroke:#00FF00;stroke-width:1;stroke-miterlimit:4;stroke-dasharray:none;stroke-linejoin:round;stroke-linecap:round"
        d="M 15.0,13.0 M 11.0,13.0 M 11.0,10.0 M 10.0,10.0 M 10.0,14.0 M 15.0,14.0 M 15.0,15.516231590424274 M 10.0,15.516231590424272 M 10.0,16.466002022327388 M 15.0,16.466002022327388 M 15.0,18.0 M 16.0,18.0 M 16.0,14.0 M 16.25881904510252,13.96592582628907 M 16.5,13.86602540378444 M 16.707106781186546,13.707106781186548 M 16.86602540378444,13.5 M 16.96592582628907,13.258819045102523 M 17.0,13.0 M 16.96592582628907,12.74118095489748 M 16.86602540378444,12.5 M 16.70710678118655,12.292893218813452 M 16.5,12.13397459621556 M 16.25881904510252,12.03407417371093 M 16.0,12.0 M 15.74118095489748,12.03407417371093 M 15.5,12.13397459621556 M 15.292893218813454,12.292893218813452 M 15.133974596215563,12.5 M 15.034074173710932,12.74118095489748 "
  />
</svg>
